Coordinates
version=1
nRows=29
nColumns=24
inDegrees=yes

Units are S.I. units (second, meters, Newtons, ...)
Angles are in degrees.

endheader
time	pelvis_tilt	pelvis_list	pelvis_rotation	pelvis_tx	pelvis_ty	pelvis_tz	hip_flexion_r	hip_adduction_r	hip_rotation_r	knee_angle_r	ankle_angle_r	subtalar_angle_r	mtp_angle_r	hip_flexion_l	hip_adduction_l	hip_rotation_l	knee_angle_l	ankle_angle_l	subtalar_angle_l	mtp_angle_l	lumbar_extension	lumbar_bending	lumbar_rotation
      7.48000000	     -9.90658346	     -1.19912375	      6.28570488	     -1.21220125	     -0.03518459	      2.03041532	     34.89738875	     -1.33938957	    -19.45441928	     -9.65537209	     -0.83740100	      5.92994001	     18.83867639	     -4.49892635	      1.18194636	     -4.03826876	    -14.36916021	     11.83897396	      7.64685488	     15.82693768	      3.31889383	     -0.02927526	     -9.66508030
      7.49000000	     -9.78633833	     -1.49306365	      6.35468626	     -1.19782612	     -0.03667540	      2.03152676	     35.00817939	     -1.11087360	    -19.19192401	    -11.40508475	     -1.56188216	      4.37810126	     18.13995846	     -4.79676453	      0.46566691	     -4.04147758	    -15.74589988	     11.53325111	      8.71358283	     16.05144158	      3.39589563	      0.30607896	     -9.69800342
      7.50000000	     -9.65050157	     -1.97876333	      6.37034621	     -1.18327030	     -0.03777207	      2.03277307	     35.02447144	     -0.61056690	    -18.62679708	    -13.14370921	     -1.90755231	      2.96879699	     11.77911683	     -5.01508043	     -0.46957829	     -4.10596875	    -17.19807811	     10.77068214	      9.62927363	     17.33059051	      3.49579525	      0.84945805	     -9.72915156
      7.51000000	     -9.64490163	     -2.57826274	      6.19748322	     -1.16867126	     -0.03866503	      2.03437742	     35.15534617	      0.14234373	    -17.77681435	    -14.70453986	     -2.59891817	      1.49658703	      5.68781981	     -4.95143449	     -1.53432819	     -4.47183430	    -18.87103414	      9.75012915	     10.61230784	     18.79809504	      3.74171264	      1.50584715	     -9.61252560
      7.52000000	     -9.67430578	     -3.29242546	      5.91277443	     -1.15402970	     -0.03913781	      2.03613044	     35.31657901	      1.08790368	    -16.85733510	    -16.13426994	     -3.51642012	      0.08651747	      0.58148715	     -4.69340170	     -2.73813570	     -5.05461076	    -20.75248743	      8.26157468	     11.53979454	     20.79948603	      4.03124950	      2.29536918	     -9.43241336
      7.53000000	     -9.78056692	     -4.03685609	      5.49774938	     -1.13923910	     -0.03939130	      2.03800721	     35.58190986	      2.12447192	    -16.01054461	    -17.52434229	     -4.87446165	     -1.28816368	     -0.53103102	     -4.18805330	     -3.99218309	     -5.87317333	    -22.94784252	      6.57493752	     12.52761924	     21.63223378	      4.41325862	      3.12970758	     -9.15864175
      7.54000000	     -9.89362704	     -4.68186285	      5.27687505	     -1.12449356	     -0.03925291	      2.03968789	     35.83162138	      2.97946859	    -15.32096738	    -18.96617608	     -5.87516441	     -2.65452110	     -2.32007795	     -3.46440488	     -5.13438775	     -6.36051375	    -25.22202656	      3.61936198	     12.78305132	     25.58015125	      4.78977073	      3.83125026	     -9.18067904
      7.55000000	     -9.95707529	     -5.24940353	      5.02182784	     -1.10958288	     -0.03901548	      2.04145272	     35.92673710	      3.81012399	    -14.79193738	    -20.29482964	     -6.83657708	     -4.02595439	     -1.86754231	     -2.60573136	     -6.22454148	     -6.87452881	    -27.76956503	      0.32471266	     12.93195020	     28.69974709	      5.12449802	      4.45156231	     -9.16818892
      7.56000000	     -9.96285306	     -5.85043173	      4.88786853	     -1.09459703	     -0.03865770	      2.04317767	     35.76778060	      4.63678008	    -14.61076899	    -21.35009625	     -7.61527637	     -5.38957925	      0.17469294	     -1.57132522	     -7.38638145	     -7.18201745	    -30.50822793	     -3.57272378	     12.78428829	     32.63395061	      5.42230332	      5.08049449	     -9.32207784
      7.57000000	    -10.11593824	     -6.36148326	      4.66750657	     -1.07986140	     -0.03849354	      2.04514242	     35.63509854	      5.45117286	    -14.37315511	    -22.23146204	     -7.97453266	     -6.64706880	      2.35447238	     -0.17157320	     -8.42386372	     -7.33698114	    -33.45494723	     -7.80408538	     12.23853033	     36.26344614	      5.82842703	      5.58873422	     -9.41688776
      7.58000000	    -10.27902394	     -7.05218401	      4.47146148	     -1.06528671	     -0.03832226	      2.04717504	     35.31912073	      6.46345270	    -14.25120445	    -22.78688002	     -7.89917984	     -7.63418398	      4.18276009	      1.45587537	     -9.64113510	     -7.18949377	    -36.58079744	    -12.08460578	     11.50014898	     39.63151790	      6.24826950	      6.27220105	     -9.50579198
      7.59000000	    -10.47625565	     -7.83253007	      4.24225955	     -1.05109134	     -0.03819941	      2.04926506	     34.92008647	      7.59216524	    -14.18377400	    -23.12882422	     -7.45206788	     -8.30590400	      5.34163054	      3.29369036	    -10.89555045	     -6.79761662	    -39.83745640	    -16.18207347	     10.43396604	     42.36052659	      6.65753927	      7.04363536	     -9.57398952
      7.60000000	    -10.69021501	     -8.66369631	      3.98670012	     -1.03728844	     -0.03804403	      2.05129159	     34.43719253	      8.78521859	    -14.13501518	    -23.27725949	     -6.76684203	     -8.71016176	      5.86079170	      5.27299339	    -12.10062338	     -6.15381638	    -43.12075230	    -19.99927088	      8.96188230	     44.36103064	      7.02580638	      7.88309515	     -9.51326422
      7.61000000	    -10.87376202	     -9.51533230	      3.78596271	     -1.02376156	     -0.03776534	      2.05309990	     33.83472545	      9.94739647	    -14.24725607	    -23.26623472	     -5.91898561	     -8.83130817	      5.98889875	      7.32971359	    -13.21983988	     -5.31901889	    -46.38779064	    -23.29673034	      7.19999294	     44.79976928	      7.33653384	      8.75481007	     -9.45668053
      7.62000000	    -10.95875296	    -10.20872016	      3.54344253	     -1.01041658	     -0.03719638	      2.05492933	     33.04448307	     10.99491313	    -14.33270059	    -23.13593128	     -5.06065635	     -8.89945896	      6.12979397	      9.25823732	    -14.10012148	     -4.56431653	    -49.40726192	    -26.28913075	      5.05894889	     44.68944190	      7.49576274	      9.47014716	     -9.24997995
      7.63000000	    -10.97352650	    -10.82901833	      3.35339881	     -0.99725636	     -0.03639432	      2.05657570	     32.12259593	     11.92363226	    -14.52430180	    -22.90224809	     -4.25952702	     -8.77847806	      6.40636982	     11.14574538	    -14.82361059	     -3.76959108	    -52.23356353	    -28.58064103	      2.87671861	     44.13195979	      7.56000618	     10.11926197	     -9.02978670
      7.64000000	    -10.97573560	    -11.35279563	      3.30302162	     -0.98426101	     -0.03552631	      2.05796683	     31.17225473	     12.63962394	    -14.97709567	    -22.64460555	     -3.40220548	     -8.43345531	      7.02485395	     13.10241326	    -15.34466520	     -2.85216245	    -54.91214861	    -29.83842095	      0.82596013	     43.14422587	      7.61809611	     10.64510667	     -8.83617057
      7.65000000	    -10.99405747	    -11.79235950	      3.15543291	     -0.97131340	     -0.03463309	      2.05927246	     30.18168769	     13.29347440	    -15.35672915	    -22.28223241	     -2.94527818	     -8.09043674	      9.99195465	     15.07692890	    -15.72402154	     -2.03795873	    -57.53099383	    -29.45108140	     -0.64019127	     39.77529756	      7.67698339	     11.12075380	     -8.46059675
      7.66000000	    -10.81018084	    -12.14717348	      3.18125702	     -0.95852570	     -0.03338774	      2.06036604	     28.92477485	     13.84427616	    -15.62871663	    -21.83341705	     -2.39716932	     -7.73092496	     12.17118304	     16.84829624	    -15.91949713	     -1.09027193	    -59.74316193	    -28.55370051	     -2.08881620	     38.86333901	      7.52656293	     11.48466498	     -8.16599451
      7.67000000	    -10.54518584	    -12.42436746	      3.24335333	     -0.94589265	     -0.03194808	      2.06142458	     27.52659114	     14.39448561	    -15.51589839	    -21.31281023	     -1.70049423	     -7.49504027	     12.30423089	     18.51679723	    -15.96507767	     -0.12214458	    -61.61364737	    -27.08153997	     -3.28651799	     38.96130528	      7.27502452	     11.76208293	     -7.80615997
      7.68000000	    -10.31072153	    -12.59417966	      3.31785639	     -0.93344429	     -0.03047330	      2.06239914	     26.10949913	     14.87243637	    -15.14766159	    -20.70487442	     -1.07616749	     -7.42461836	     12.17382925	     20.20507554	    -15.81370898	      0.84510989	    -63.18576585	    -25.15450551	     -4.17246533	     38.98727728	      7.03304689	     11.92590706	     -7.41336573
      7.69000000	    -10.08497004	    -12.67031946	      3.36998798	     -0.92099426	     -0.02895954	      2.06336546	     24.62854283	     15.29201435	    -14.63319081	    -19.99205654	     -0.48081149	     -7.43288734	     11.86650893	     21.82882294	    -15.52793569	      1.71697732	    -64.39869754	    -23.08962233	     -4.84900093	     39.09348153	      6.80044909	     11.99369252	     -6.96504161
      7.70000000	     -9.80833591	    -12.58523688	      3.49689013	     -0.90879144	     -0.02735734	      2.06418727	     23.12236956	     15.53292181	    -14.01137560	    -19.38487697	      0.50459838	     -7.34131699	      8.51006142	     23.36229111	    -14.98277766	      2.57278727	    -65.30911694	    -20.86150755	     -5.23094480	     38.21442482	      6.47780477	     11.88951320	     -6.58931018
      7.71000000	     -9.62574241	    -12.43660027	      3.58660965	     -0.89657182	     -0.02592644	      2.06505250	     21.67631574	     15.67264415	    -13.59373666	    -18.65275468	      0.99554743	     -7.35242463	      8.42492336	     24.90281386	    -14.36049468	      3.33885560	    -65.83728478	    -18.89418164	     -5.47141676	     38.73891773	      6.25551868	     11.71439736	     -6.17459681
      7.72000000	     -9.37714335	    -12.25646888	      3.73602488	     -0.88444676	     -0.02450372	      2.06577909	     20.16748132	     15.74130417	    -13.30997850	    -17.91073057	      1.44566063	     -7.29183427	      8.19887861	     26.31149764	    -13.66344538	      4.06958735	    -66.03714710	    -17.02865343	     -5.62767806	     39.47016325	      5.95621968	     11.51460041	     -5.80604210
      7.73000000	     -9.08463332	    -11.91684392	      3.90360669	     -0.87234668	     -0.02303557	      2.06657115	     18.59931153	     15.64733756	    -12.97692808	    -17.19336637	      2.01258872	     -7.18925983	      7.57412868	     27.53126255	    -12.79059499	      4.68273613	    -65.81307542	    -15.50594920	     -5.82343872	     41.18019496	      5.59716300	     11.13299164	     -5.48663951
      7.74000000	     -8.92010467	    -11.56266518	      3.98224490	     -0.86025110	     -0.02180750	      2.06743246	     17.15600240	     15.52950826	    -12.66217515	    -16.46103791	      2.47237659	     -7.02984410	      7.30735054	     28.78883332	    -11.93461897	      5.14474622	    -65.32859680	    -13.88105121	     -5.80166774	     42.37118253	      5.36383819	     10.74096605	     -5.13178248
      7.75000000	     -8.85232981	    -11.17422897	      3.97077137	     -0.84830240	     -0.02079991	      2.06838484	     15.83624582	     15.36779096	    -12.33933040	    -15.77305679	      2.90416613	     -6.81950333	      7.28626707	     30.05415811	    -11.07965847	      5.46056648	    -64.58950295	    -12.24254738	     -5.64698557	     42.94863860	      5.19004997	     10.31882094	     -4.67848195
      7.76000000	     -8.69455209	    -10.75539018	      3.98725299	     -0.83637416	     -0.01976297	      2.06935794	     14.39069729	     15.17390395	    -12.04694680	    -15.02528511	      3.29179416	     -6.60471783	      7.24593862	     31.11130103	    -10.22213867	      5.70159140	    -63.52621314	    -10.78740934	     -5.49013137	     43.52221972	      4.91730047	      9.85740131	     -4.27114693
